<svg height="511pt" viewBox="0 0 511.99982 511" width="511pt" xmlns="http://www.w3.org/2000/svg"><path d="m220.03125 96.152344c14.558594-23.464844 47.433594-57.148438 96.054688-60.488282 36.652343-2.519531 68.269531-14.640624 90.671874-26.09375 11.816407-6.039062 24.5 6.527344 18.496094 18.390626-14.105468 27.847656-36.933594 61.757812-68.144531 72.941406-30.90625 11.070312-50.550781 31.609375-61.953125 47.804687-15.136719 21.492188-45.246094 26.59375-65.957031 10.4375-.519531-.402343-32.621094-25.199219-9.167969-62.992187zm0 0" fill="#546370"/><path d="m229.199219 159.144531c20.710937 16.15625 50.820312 11.054688 65.957031-10.4375 11.402344-16.195312 31.046875-36.734375 61.953125-47.804687 14.460937-5.179688 27.121094-15.242188 37.949219-27.316406-36.011719-21.019532-74.621094-29.800782-103.898438-33.339844-35.046875 10.65625-59.214844 36.699218-71.128906 55.90625-23.453125 37.792968 8.648438 62.589844 9.167969 62.992187zm0 0" fill="#3d4751"/><path d="m171.742188 458.347656c9.375-42.066406-.753907-79.824218-.753907-80.9375-38.089843 8.988282-87.121093 5.925782-115.304687 2.929688-13.765625-1.464844-23.265625-14.472656-20.582032-28.097656 4.972657-25.214844 16.855469-42.503907 16.855469-42.503907h-24.367187c-11.210938 0-20.261719-9.210937-20.085938-20.453125.273438-17.804687 3.699219-34.421875 7.546875-47.644531 4.699219-16.136719 18.214844-28.257813 34.757813-30.949219 23.699218-3.859375 60.992187-16.792968 91.421875-58.335937 48.695312-66.480469 128.5-75.976563 128.5-75.976563s113.617187-20.351562 148.789062 103.113282c23.042969 80.90625 46.089844 195.542968 59.238281 264.957031 5.953126 31.421875-18.042968 60.523437-49.929687 60.535156-62.390625.015625-158.523437.03125-219.238281-.007813-24.386719-.015624-42.164063-22.757812-36.847656-46.628906zm0 0" fill="#60daa8"/><path d="m477.757812 444.449219c-13.148437-69.414063-36.195312-184.050781-59.238281-264.957031-7.167969-25.160157-17.589843-44.34375-29.644531-58.949219l-81.972656 56.296875s3.792968 51.847656 38.851562 94.332031c34.917969 42.3125-27.152344 134.023437-16.496094 233.832031 35.488282-.003906 70.457032-.011718 98.570313-.019531 31.886719-.007813 55.882813-29.113281 49.929687-60.535156zm0 0" fill="#00ce8e"/><path d="m285.929688 309.453125c.253906-18.625-15.078126-33.609375-33.636719-32.996094-37.324219 1.238281-85.871094 17.582031-113.71875 26.660157-37.472657 12.214843-86.617188 6.617187-86.617188 6.617187s-11.882812 17.292969-16.855469 42.507813c-2.683593 13.621093 6.816407 26.632812 20.585938 28.097656 28.179688 2.992187 77.210938 6.058594 115.300781-2.929688 47.648438-7.542968 83.777344-27.425781 101.171875-41.171875 13.769532-10.882812 13.765625-26.570312 13.769532-26.785156zm0 0" fill="#00c172"/><g fill="#fffcdc"><path d="m91.605469 337.492188c1.511719-7.699219 4.3125-17.851563 9.617187-27.371094-11.882812.996094-23.050781 1.023437-31.734375.742187.4375 7.109375 2.425781 18.929688 10.183594 29.382813 3.472656 4.671875 10.8125 2.960937 11.933594-2.753906zm0 0"/><path d="m143.625 330.769531c.691406-8.761719 2.628906-20.765625 8.023438-31.90625-4.714844 1.523438-9.109376 2.964844-13.074219 4.257813-6.359375 2.070312-13.050781 3.621094-19.785157 4.78125 1.386719 7.070312 4.816407 17.945312 13.300782 26.980468 3.984375 4.242188 11.078125 1.695313 11.535156-4.113281zm0 0"/><path d="m184.46875 322.347656c4.660156 3.476563 11.199219-.28125 10.636719-6.078125-.800781-8.230469-1.019531-19.484375 1.757812-30.710937-10.941406 2.78125-21.632812 5.90625-31.472656 8.949218 1.917969 6.125 7.128906 18.933594 19.078125 27.839844zm0 0"/></g><path d="m79.554688 250.503906c-11.703126 4.257813-23.3125 1.851563-25.925782-5.375-2.617187-7.230468 4.75-16.546875 16.453125-20.804687 11.703125-4.261719 23.3125-1.855469 25.925781 5.375 2.617188 7.230469-4.75 16.542969-16.453124 20.804687zm0 0" fill="#546370"/><path d="m297.734375 113.84375c14.558594-23.464844 47.433594-57.144531 96.054687-60.484375 36.652344-2.519531 68.269532-14.640625 90.671876-26.09375 11.816406-6.039063 24.5 6.527344 18.496093 18.386719-14.101562 27.851562-36.933593 61.761718-68.144531 72.941406-30.90625 11.074219-50.550781 31.613281-61.953125 47.804688-15.136719 21.496093-45.246094 26.59375-65.957031 10.441406-.515625-.402344-32.617188-25.199219-9.167969-62.996094zm0 0" fill="#6b7d8e"/><path d="m431.394531 189.917969c11.945313 11.980469 52.785157 72.371093 40.84375 84.351562-11.945312 11.980469-72.152343-28.988281-84.097656-40.96875-11.941406-11.976562-11.941406-31.402343 0-43.382812 11.945313-11.980469 31.308594-11.980469 43.253906 0zm0 0" fill="#f4e74d"/><path d="m454.195312 304.324219c10.066407 10.09375 44.484376 60.988281 34.421876 71.085937-10.066407 10.09375-60.808594-24.429687-70.875-34.527344-10.0625-10.09375-10.0625-26.464843 0-36.5625 10.066406-10.09375 26.386718-10.09375 36.453124.003907zm0 0" fill="#f4e74d"/><path d="m469.441406 403.851562c8.378906 8.40625 37.03125 50.777344 28.652344 59.179688-8.378906 8.40625-50.621094-20.335938-59-28.742188-8.378906-8.402343-8.378906-22.03125 0-30.4375s21.964844-8.40625 30.347656 0zm0 0" fill="#f4e74d"/><path d="m177.808594 172.609375c-4.144532 0-7.5 3.359375-7.5 7.5v12.449219c0 4.144531 3.355468 7.5 7.5 7.5 4.140625 0 7.5-3.355469 7.5-7.5v-12.449219c0-4.140625-3.359375-7.5-7.5-7.5zm0 0"/><path d="m477.0625 74.023438c-2.445312 3.34375-1.714844 8.039062 1.628906 10.480468s8.035156 1.714844 10.480469-1.628906c7.21875-9.878906 14.109375-21.261719 20.472656-33.835938 4.226563-8.339843 2.675781-17.992187-3.945312-24.589843-6.632813-6.609375-16.3125-8.125-24.652344-3.863281-13.414063 6.855468-32.070313 14.839843-54.039063 20.074218 1.675782-3.03125 3.328126-6.136718 4.933594-9.3125 4.226563-8.34375 2.675782-17.996094-3.945312-24.589844-6.636719-6.613281-16.3125-8.125-24.652344-3.863281-19.855469 10.148438-51.199219 22.773438-87.773438 25.289063-51.609374 3.542968-83.511718 38.601562-95.523437 54.667968-24.597656 10.210938-58.976563 29.726563-84.867187 65.074219-28.367188 38.726563-62.738282 51.480469-86.578126 55.363281-19.253906 3.132813-35.25 17.367188-40.75 36.253907-4.964843 17.046875-7.601562 33.742187-7.84765575 49.628906-.11718725 7.46875 2.70703175 14.515625 7.94531275 19.835937 5.226562 5.304688 12.199219 8.226563 19.640625 8.226563h11.546875c-3.925781 7.988281-8.644531 19.617187-11.394531 33.558594-1.691407 8.582031.308593 17.539062 5.488281 24.570312 5.148437 6.984375 13.042969 11.515625 21.660156 12.433594 25.273437 2.683594 71.800781 5.851563 110.207031-1.46875 4.347656 24.050781 4.128906 48.824219-.675781 70.386719-3.0625 13.753906.199219 27.90625 8.953125 38.832031 8.609375 10.75 21.445312 16.917969 35.210938 16.929687 27.578124.019532 183.226562.015626 219.246093.003907 26.335938-.007813 48.960938-17.609375 56.042969-42.234375 9.640625 3.195312 17.835938-.21875 19.53125-1.917969 7.21875-7.242187 2.335938-20.164063-1.964844-29.253906-1.769531-3.746094-6.238281-5.34375-9.984375-3.574219-3.746093 1.773438-5.34375 6.242188-3.574219 9.988281 2.8125 5.941407 3.773438 9.5 4.085938 11.429688-3.300781-.566407-10.4375-2.957031-22.617188-10.1875-12.136718-7.203125-22.0625-14.84375-24.945312-17.734375-5.457031-5.472656-5.160156-14.097656 0-19.851563 7.230469-8.066406 17.085938-2.640625 19.722656 0 1.421875 1.429688 4.371094 4.972657 8.375 10.644531 2.390625 3.382813 7.070313 4.1875 10.453125 1.800782 3.382813-2.394532 4.191407-7.070313 1.800781-10.453125-1.8125-2.566407-4.898437-6.800781-7.757812-10.125-1.179688-5.988281-2.375-11.972657-3.566406-17.90625 3.527344 1.03125 14.441406 3.75 20.492187-2.402344 7.320313-7.441406 4.765625-21.125-8.4375-44.523437-8.914062-15.792969-19.277343-30.976563-30.597656-41.015626-1.054687-4.734374-2.105469-9.421874-3.152344-14.027343 5.1875 1.765625 18.742188 5.574219 25.808594-1.574219 5.085937-5.140625 9.601563-15.996094-10.242187-51.15625-10.515626-18.632812-24.070313-37.238281-30.597657-43.785156-3.28125-3.289063-7.054687-5.894532-11.152343-7.765625-3.925782-13.636719-8.992188-26.1875-15.082032-37.445313 7.71875-5.300781 16.632813-10.085937 26.871094-13.753906 10.421875-3.734375 20.609375-10.003906 30.289062-18.636719 3.089844-2.757812 3.359376-7.496093.601563-10.589843-2.753906-3.089844-7.496094-3.359376-10.585937-.601563-8.234376 7.339844-16.765626 12.625-25.363282 15.707031-33.121094 11.863282-53.933594 34.035156-65.558594 50.546875-6.195312 8.800781-31.746093 27.300781-55.222656 8.835938-17.066406-13.425781-15.6875-39.761719-7.398437-53.117188 15.90625-25.632812 47.949219-54.058593 90.199219-56.960937 39.105468-2.6875 72.46875-16.109375 93.570312-26.898438 3.738281-1.910156 6.488281.382813 7.238281 1.132813.75.746093 3.039063 3.464843 1.152344 7.191406-6 11.851563-12.460937 22.535156-19.203125 31.757813zm-420.585938 298.859374c-4.523437-.269531-8.472656-2.757812-11.167968-6.417968-2.730469-3.703125-3.742188-8.238282-2.847656-12.769532 3.3125-16.8125 9.972656-29.988281 13.449218-36.058593 1.835938.148437 4.144532.3125 6.847656.460937 1.277344 8 4.261719 17.683594 10.894532 26.617188 2.734375 3.683594 7.902344 6.191406 14.484375 5.371094 5.671875-.703126 9.726562-5.53125 10.828125-11.148438 1.585937-8.082031 3.949218-15.359375 7.027344-21.710938 2.382812-.242187 4.785156-.527343 7.199218-.855468 2.265625 7.375 6.285156 16.035156 13.433594 23.648437 2.746094 2.925781 8.59375 5.636719 15 3.664063 5.464844-1.683594 9.027344-6.617188 9.476562-12.324219.785157-9.949219 2.808594-18.800781 6.011719-26.378906 1.238281-.394531 2.492188-.792969 3.769531-1.199219 3.320313 7.546875 9.160157 17.167969 19.105469 24.582031 2.523438 1.882813 9.734375 4.179688 15.40625.976563 4.980469-2.808594 7.730469-8.097656 7.175781-13.796875-.402343-4.121094-4.070312-7.128907-8.191406-6.738281-3.554687.347656-6.289062 3.125-6.714844 6.527343-6.019531-4.894531-9.90625-11.03125-12.304687-16.011719 24.667969-7.355468 53.53125-14.582031 77.183594-15.363281 6.917969-.234375 13.449219 2.308594 18.386719 7.148438 4.933593 4.839843 7.597656 11.320312 7.5 18.300781-.003907.503906-.21875 12.496094-10.917969 20.949219-18.496094 14.617187-53.871094 32.710937-97.695313 39.648437-.003906 0-34.597656 7.570313-113.339844 2.878906zm21.636719-54.34375c3.496094.011719 7.214844-.039062 11.097657-.175781-1.863282 4.960938-3.410157 10.257813-4.597657 15.875-3.53125-5.269531-5.453125-10.902343-6.5-15.699219zm49.992188-4.816406c3.808593-.847656 7.578125-1.835937 11.257812-2.984375-1.453125 5.507813-2.476562 11.390625-3.058593 17.613281-4.015626-4.703124-6.570313-9.90625-8.199219-14.628906zm342.714843 27.039063c9.992188 17.097656 12.121094 25.902343 12.144532 29-3.097656-.03125-11.875-2.179688-28.894532-12.191407-14.359374-8.445312-27.242187-18.191406-31.015624-21.980468-7.140626-7.160156-7.039063-18.714844 0-25.972656 8.863281-9.140626 22.378906-3.460938 25.828124 0 3.78125 3.792968 13.511719 16.726562 21.9375 31.144531zm-17.933593-107.355469c13.089843 22.613281 14.546875 32.847656 13.949219 35.472656-2.621094.589844-12.832032-.894531-35.347657-14.011718-17.523437-10.210938-33.351562-22.160157-38.035156-26.859376-9.015625-9.042968-9.835937-24.652343 0-32.792968 13.804687-11.433594 28.269531-4.371094 32.628906 0 4.695313 4.703125 16.617188 20.597656 26.804688 38.191406zm-161.527344-123.515625c-26.59375 42.867187 9.378906 71.652344 10.929687 72.863281 9.320313 7.269532 26.078126 12.265625 40.1875 10.496094 14.703126-1.84375 27.964844-10.390625 36.515626-22.53125 4.722656-6.707031 11.140624-14.453125 19.5-21.902344 3.9375 7.589844 7.378906 15.832032 10.300781 24.640625-9.8125.246094-19 4.183594-25.960938 11.167969-14.835937 14.878906-14.835937 39.09375 0 53.972656 6.128907 6.148438 29.683594 23.695313 51.8125 35.070313 1.175781 5.105469 2.371094 10.335937 3.570313 15.667969-.742188-.050782-14.253906-2.414063-25.78125 9.691406-12.660156 13.296875-12.960938 34.152344 0 47.152344 5.414062 5.433593 25.421875 20.40625 44.304687 30.015624.960938 4.742188 1.925781 9.53125 2.890625 14.355469-1.75-.328125-14.03125-3.101562-25.847656 8.007813-11.632812 10.941406-11.277344 29.714844 0 41.027344 4.445312 4.457031 20.582031 16.539062 36.175781 24.640624-4.625 19.273438-21.902343 33.25-42.128906 33.257813-67.238281.015625-159.847656.03125-219.230469-.007813-9.195312-.003906-17.765625-4.128906-23.519531-11.304687-5.890625-7.359375-8.085937-16.90625-6.015625-26.195313 5.242188-23.519531 5.476562-50.453124.75-76.5 43.167969-8.203124 78.117188-26.429687 96.996094-41.351562 16-12.644531 16.601562-30.597656 16.617187-32.566406.15625-11.066406-4.105469-21.421875-11.996093-29.160156-7.890626-7.742188-18.335938-11.785157-29.386719-11.433594-36.816407 1.222656-83.984375 16.632812-112.167969 25.84375 0 0-24.953125 8.1875-87.917969 7.429687h-24.367187c-3.386719 0-6.566406-1.332031-8.953125-3.753906-2.394531-2.433594-3.6875-5.660156-3.636719-9.082031.226562-14.542969 2.664062-29.90625 7.253906-45.664063 3.890625-13.367187 15.179688-23.433593 28.757813-25.644531 26.605469-4.332031 64.902343-18.480469 96.265625-61.304688 46.097656-62.929687 122.578125-72.867187 123.335937-72.960937.144531-.015625 18.066407-3.109375 40.929688.828125-8.175781 8.152344-14.964844 16.824219-20.183594 25.234375zm34.238281-37.566406c-29.703125-7.585938-56.863281-4.746094-76.328125.644531 14.953125-13.5625 37.441407-27.769531 67.332031-29.820312 39.101563-2.6875 72.464844-16.109376 93.570313-26.898438 3.742187-1.914062 6.484375.382812 7.238281 1.132812.746094.746094 3.039063 3.460938 1.148438 7.1875-3.550782 7.019532-7.304688 13.664063-11.152344 19.816407-28.222656 2.71875-56.335938 5.214843-81.808594 27.9375zm0 0"/><path d="m93.554688 217.183594c-7.070313-3.304688-16.804688-3.269532-26.039063.09375-15.828125 5.761718-25.027344 19.113281-20.941406 30.402344 1.570312 4.34375 4.707031 8.152343 9.503906 9.960937 10.832031 4.085937 21.378906 1.605469 26.039063-.089844 15.828124-5.761719 25.027343-19.117187 20.945312-30.402343-1.574219-4.347657-4.863281-7.792969-9.507812-9.964844zm-16.566407 26.273437c-6.574219 2.390625-14.898437 3.183594-16.308593-.878906-.726563-2.089844 3.324218-8.0625 11.96875-11.207031 3.292968-1.199219 14.871093-3.371094 16.308593.882812.707031 2.089844-3.324219 8.054688-11.96875 11.203125zm0 0"/></svg>