<?xml version="1.0" encoding="iso-8859-1"?>
<!-- Generator: Adobe Illustrator 19.0.0, SVG Export Plug-In . SVG Version: 6.00 Build 0)  -->
<svg version="1.1" id="Capa_1" xmlns="http://www.w3.org/2000/svg" xmlns:xlink="http://www.w3.org/1999/xlink" x="0px" y="0px"
	 viewBox="0 0 512 512" style="enable-background:new 0 0 512 512;" xml:space="preserve">
<path style="fill:#898890;" d="M256,152.526c0,0-140.664,62.977-140.664,140.663v190.544h52.671V293.188
	c0-9.991,12.714-30.86,48.544-56.798c14.049-10.168,28.275-18.647,39.45-24.796c11.492,6.324,26.217,15.115,40.668,25.686
	c34.928,25.549,47.322,46.085,47.322,55.908v190.544h52.672V293.189C396.663,215.503,256,152.526,256,152.526z"/>
<g>
	<path style="fill:#57565C;" d="M329.329,237.281c-14.451-10.571-29.176-19.362-40.668-25.686
		c-4.94,2.718-10.477,5.893-16.331,9.467c7.769,4.743,16.098,10.19,24.339,16.219c34.928,25.549,47.322,46.085,47.322,55.908
		v190.544h32.659V293.188C376.651,283.366,364.257,262.83,329.329,237.281z"/>
	<path style="fill:#57565C;" d="M272.33,160.582c-9.981-5.211-16.33-8.056-16.33-8.056s-140.664,62.977-140.664,140.663v190.544
		h32.659V293.189C147.995,231.988,235.279,179.926,272.33,160.582z"/>
</g>
<path style="fill:#C6C5CA;" d="M433.5,28.266v71h-71v-71h-71v71h-71v-71h-71v71h-71v-71h-71v455.467h107.836V293.189
	C115.336,215.503,256,152.525,256,152.525s140.663,62.977,140.663,140.663v190.544H504.5V28.266H433.5z"/>
<g>
	<rect x="149.5" y="28.269" style="fill:#898890;" width="39.51" height="71"/>
	<rect x="433.5" y="28.269" style="fill:#898890;" width="39.51" height="71"/>
	<rect x="291.5" y="28.269" style="fill:#898890;" width="39.51" height="71"/>
	<path style="fill:#898890;" d="M295.51,152.525c0,0-7.815,3.5-19.755,9.862c38.731,20.638,120.908,71.421,120.908,130.801v190.544
		h39.51V293.189C436.173,215.503,295.51,152.525,295.51,152.525z"/>
	<rect x="7.5" y="28.269" style="fill:#898890;" width="39.51" height="455.47"/>
</g>
<g>
	<rect x="113.57" y="125.729" style="fill:#1D1D1F;" width="15" height="15"/>
	<rect x="88.57" y="125.729" style="fill:#1D1D1F;" width="15" height="15"/>
	<rect x="188.57" y="125.729" style="fill:#1D1D1F;" width="15" height="15"/>
	<rect x="163.57" y="125.729" style="fill:#1D1D1F;" width="15" height="15"/>
	<rect x="138.57" y="125.729" style="fill:#1D1D1F;" width="15" height="15"/>
	<rect x="23.994" y="218.699" style="fill:#1D1D1F;" width="15" height="15"/>
	<rect x="73.994" y="218.699" style="fill:#1D1D1F;" width="15" height="15"/>
	<rect x="98.99" y="218.699" style="fill:#1D1D1F;" width="14.343" height="15"/>
	<rect x="48.994" y="218.699" style="fill:#1D1D1F;" width="15" height="15"/>
	<rect x="25.994" y="425.069" style="fill:#1D1D1F;" width="15" height="15"/>
	<rect x="75.994" y="425.069" style="fill:#1D1D1F;" width="15" height="15"/>
	<rect x="50.994" y="425.069" style="fill:#1D1D1F;" width="15" height="15"/>
	<rect x="469.11" y="310.629" style="fill:#1D1D1F;" width="15" height="15"/>
	<rect x="444.11" y="310.629" style="fill:#1D1D1F;" width="15" height="15"/>
	<rect x="419.11" y="310.629" style="fill:#1D1D1F;" width="15" height="15"/>
	<rect x="467.33" y="450.729" style="fill:#1D1D1F;" width="15" height="15"/>
	<rect x="442.33" y="450.729" style="fill:#1D1D1F;" width="15" height="15"/>
	<polygon style="fill:#1D1D1F;" points="426,20.766 426,91.766 370,91.766 370,20.766 284,20.766 284,91.766 228,91.766 228,20.766 
		142,20.766 142,91.766 86,91.766 86,20.766 0,20.766 0,491.232 95.336,491.232 95.336,476.232 15,476.232 15,398.803 54.5,398.803 
		54.5,383.803 15,383.803 15,134.399 57,134.399 57,119.399 15,119.399 15,95.732 37,95.732 37,80.732 15,80.732 15,35.766 
		71,35.766 71,106.766 157,106.766 157,35.766 213,35.766 213,62.732 186.766,62.732 186.766,77.732 213,77.732 213,106.766 
		299,106.766 299,90.399 329,90.399 329,75.399 299,75.399 299,35.766 355,35.766 355,106.766 441,106.766 441,35.766 497,35.766 
		497,68.732 471.38,68.732 471.38,83.732 497,83.732 497,105.399 458.667,105.399 458.667,120.399 497,120.399 497,218.702 
		431,218.702 431,233.702 497,233.702 497,476.232 416.663,476.232 416.663,491.232 512,491.232 512,20.766 	"/>
	<path style="fill:#1D1D1F;" d="M424.139,431.869v-15h-19.976v-25.804h47.451v-15h-47.451v-82.877
		c0-81.606-139.174-144.855-145.099-147.509L256,144.309l-3.064,1.372c-1.892,0.847-17.387,7.885-37.589,19.72h-69.013v15h45.156
		c-39.594,26.769-83.652,66.873-83.652,112.789v10.465H57v15h50.837v23.065H85v15h22.837v134.514h67.671V293.188
		c0-4.959,8.164-23.737,45.442-50.723c3.068-2.22,6.249-4.425,9.514-6.614v12.566h18.038v30.862h-28.997v-19.53h-15v19.531h-15.201
		v15h15.201v30.863h-16.497v15h16.497v30.863h-16.497v15h16.497v30.862h-16.497v15h16.497v26.819h15v-26.818h28.997v26.363h15
		v-26.363h28.997v26.819h15v-26.819h16.492v-15h-16.492v-30.862h16.492v-15h-16.492v-30.863h16.492v-15h-16.492v-30.863h15.196v-15
		h-15.196v-19.532h-15v19.531h-28.997v-30.862h18.033v-12.565c3.689,2.474,7.271,4.969,10.707,7.482
		c36.3,26.551,44.249,44.989,44.249,49.854v198.044h67.672v-59.364H424.139z M219.505,294.28h28.997v30.863h-28.997V294.28z
		 M219.505,340.144h28.997v30.863h-28.997V340.144z M219.505,416.869v-30.862h28.997v30.862H219.505z M292.499,416.869h-28.997
		v-30.862h28.997V416.869z M292.499,371.007h-28.997v-30.863h28.997V371.007z M292.499,294.28v30.863h-28.997V294.28H292.499z
		 M351.491,383.803v-74.08l37.672-11.564v85.645h-37.672V383.803z M160.508,383.803h-14.675v-28.237h-15v28.237h-7.996v-85.645
		l37.671,11.564V383.803z M122.837,476.232v-77.43h37.671v77.43H122.837z M160.508,293.188v0.842l-36.723-11.273
		c4.211-23.829,22.215-46.177,43.798-65.131l26.734,26.734C172.853,262.856,160.508,280.433,160.508,293.188z M212.155,230.315
		c-2.096,1.517-4.134,3.034-6.119,4.55l-26.86-26.86c26.017-20.462,54.387-35.943,69.325-43.505v42.696
		C235.355,214.604,223.137,222.367,212.155,230.315z M263.502,233.419v-1.823h-15v1.823H234.14
		c6.911-4.508,14.213-8.935,21.862-13.24c7.652,4.307,14.946,8.734,21.854,13.24H263.502z M263.502,207.199v-11.433l28.122,17.997
		l8.086-12.635l-36.208-23.171v-13.469c12.876,6.501,35.731,18.882,58.432,35.313c3.566,2.582,7.213,5.332,10.872,8.224
		l-26.844,26.844c-1.588-1.213-3.204-2.427-4.863-3.641C289.798,222.962,277.159,214.893,263.502,207.199z M317.684,244.36
		l26.686-26.686c20.686,18.263,39.479,40.867,43.841,65.085l-36.719,11.272v-0.843C351.491,280.462,339.136,262.854,317.684,244.36z
		 M351.491,476.232v-77.43H359v31.43h15v-31.43h15.163v77.43H351.491z"/>
	<rect x="369" y="337.229" style="fill:#1D1D1F;" width="15" height="15"/>
	<rect x="369" y="312.229" style="fill:#1D1D1F;" width="15" height="15"/>
	<rect x="369" y="362.229" style="fill:#1D1D1F;" width="15" height="14.274"/>
</g>
<g>
	<rect x="384.5" y="155.729" style="fill:#FFFFFF;" width="90.78" height="15"/>
	<rect x="359.5" y="155.729" style="fill:#FFFFFF;" width="15" height="15"/>
	<rect x="334.5" y="155.729" style="fill:#FFFFFF;" width="15" height="15"/>
</g>
<g>
</g>
<g>
</g>
<g>
</g>
<g>
</g>
<g>
</g>
<g>
</g>
<g>
</g>
<g>
</g>
<g>
</g>
<g>
</g>
<g>
</g>
<g>
</g>
<g>
</g>
<g>
</g>
<g>
</g>
</svg>
