<?xml version="1.0" encoding="iso-8859-1"?>
<!-- Generator: Adobe Illustrator 19.0.0, SVG Export Plug-In . SVG Version: 6.00 Build 0)  -->
<svg version="1.1" id="Capa_1" xmlns="http://www.w3.org/2000/svg" xmlns:xlink="http://www.w3.org/1999/xlink" x="0px" y="0px"
	 viewBox="0 0 511.999 511.999" style="enable-background:new 0 0 511.999 511.999;" xml:space="preserve">
<g>
	<path style="fill:#FFD273;" d="M409.804,127.285L409.804,127.285L409.804,127.285z M384.713,102.194l-43.591,16.909l-36.151-29.486
		l-0.014,0.017c-3.612-2.966-8.303-4.64-13.337-4.359c-10.658,0.592-18.821,9.714-18.229,20.373l2.607,46.626l-39.34,25.352
		l0.015,0.024c-3.907,2.519-6.927,6.442-8.218,11.288c-2.754,10.334,3.392,20.944,13.726,23.698l18.982,5.015l26.249,6.935
		l6.941,26.275l4.737,17.93c1.022,4.904,3.933,9.411,8.475,12.339c9.001,5.805,21.003,3.212,26.808-5.789l25.351-39.34l45.743,2.558
		c4.947,0.502,10.085-0.891,14.232-4.294c8.261-6.781,9.461-18.975,2.681-27.235l-29.486-36.152l16.909-43.591
		c1.695-4.359,1.829-9.342,0-14.046C405.926,103.26,394.691,98.316,384.713,102.194z"/>
	<path style="fill:#F44F5C;" d="M287.414,224.584l-26.249-6.935l-246.51,246.51c-7.323,7.323-5.846,20.786,3.284,29.916
		c9.131,9.13,22.593,10.607,29.916,3.284l246.5-246.5L287.414,224.584z"/>
</g>
<path d="M426.045,241.992c12.51-10.27,14.334-28.801,4.085-41.285l-25.808-31.642l14.802-38.156
	c2.67-6.866,2.67-14.428,0.001-21.293c-4.426-11.387-15.179-18.744-27.395-18.744c-3.643,0-7.224,0.673-10.634,1.999l-38.164,14.804
	l-31.641-25.808c-0.204-0.166-0.413-0.324-0.626-0.471c-5.557-4.308-12.521-6.502-19.6-6.107
	c-7.822,0.435-15.007,3.889-20.231,9.728c-5.225,5.839-7.862,13.363-7.427,21.188l2.282,40.815l-34.447,22.199
	c-0.264,0.17-0.517,0.351-0.759,0.541c-5.75,3.966-9.886,9.828-11.69,16.603c-4.169,15.646,5.168,31.767,20.835,35.942l2.167,0.573
	L7.583,457.088c-5.647,5.647-8.343,13.827-7.397,22.443c0.869,7.92,4.662,15.597,10.682,21.616
	c7.164,7.164,16.349,10.839,25.038,10.839c7.141,0,13.948-2.484,19.02-7.555l234.203-234.203l0.234,0.887
	c1.671,7.642,6.202,14.174,12.784,18.419c4.761,3.07,10.263,4.692,15.909,4.692c10.043-0.001,19.284-5.035,24.723-13.469
	l22.198-34.447l39.73,2.221C412.364,249.242,420.109,246.865,426.045,241.992z M40.784,490.288
	c-2.954,2.954-10.158,2.331-15.774-3.284c-2.772-2.772-4.573-6.291-4.943-9.655c-0.164-1.501-0.168-4.292,1.659-6.118
	l242.443-242.444l15.063,3.979l3.986,15.088L40.784,490.288z M360.284,226.015c-3.584-0.198-7.015,1.543-8.965,4.567l-25.35,39.338
	c-1.738,2.695-4.696,4.305-7.913,4.305c-1.794,0-3.548-0.519-5.07-1.501c-2.129-1.373-3.586-3.496-4.104-5.978
	c-0.036-0.171-0.076-0.342-0.121-0.511l-11.68-44.205c-0.919-3.479-3.636-6.195-7.114-7.114l-45.21-11.943
	c-2.417-0.645-4.439-2.191-5.692-4.356c-1.254-2.165-1.59-4.688-0.945-7.105c0.601-2.256,2.011-4.194,3.971-5.457
	c0.215-0.138,0.422-0.283,0.622-0.435l38.704-24.942c3.024-1.949,4.768-5.372,4.567-8.964l-2.607-46.622
	c-0.138-2.488,0.701-4.881,2.363-6.739c1.661-1.857,3.947-2.956,6.437-3.095c2.972-0.162,5.183,1.075,6.435,2.104
	c0.18,0.147,0.363,0.288,0.55,0.421l35.641,29.069c2.787,2.274,6.583,2.875,9.937,1.574l43.598-16.912
	c1.097-0.426,2.239-0.643,3.395-0.643c3.903,0,7.339,2.351,8.753,5.991c0.853,2.192,0.853,4.606-0.003,6.805l-16.909,43.591
	c-1.301,3.355-0.7,7.149,1.574,9.937l29.506,36.177c1.585,1.93,2.322,4.362,2.078,6.848c-0.245,2.486-1.443,4.728-3.374,6.313
	c-2.138,1.754-4.4,2.123-5.921,2.123c-0.318,0-0.641-0.017-0.957-0.048c-0.15-0.016-0.301-0.027-0.451-0.036L360.284,226.015z"/>
<path d="M327.287,48.823c5.522,0,10-4.477,10-10V10.015c0-5.523-4.478-10-10-10s-10,4.477-10,10v28.809
	C317.287,44.346,321.764,48.823,327.287,48.823z"/>
<path d="M232.157,39.964c1.853,3.208,5.213,5.002,8.67,5.002c1.696,0,3.416-0.433,4.99-1.342c4.783-2.761,6.422-8.877,3.66-13.66
	L235.073,5.015c-2.762-4.782-8.877-6.422-13.66-3.66c-4.783,2.761-6.422,8.877-3.66,13.66L232.157,39.964z"/>
<path d="M125.539,194.734h28.809c5.522,0,10-4.477,10-10s-4.478-10-10-10h-28.809c-5.522,0-10,4.477-10,10
	C115.539,190.257,120.016,194.734,125.539,194.734z"/>
<path d="M422.416,329.504c-2.76-4.781-8.874-6.421-13.66-3.661c-4.783,2.762-6.422,8.878-3.66,13.661l14.404,24.95
	c1.852,3.208,5.213,5.002,8.67,5.002c1.696,0,3.415-0.433,4.99-1.341c4.783-2.762,6.422-8.877,3.66-13.661L422.416,329.504z"/>
<path d="M501.999,174.734h-29.586c-5.523,0-10,4.477-10,10s4.477,10,10,10h29.586c5.523,0,10-4.477,10-10
	S507.522,174.734,501.999,174.734z"/>
<path d="M433.162,1.355c-4.784-2.763-10.9-1.123-13.66,3.66l-14.404,24.949c-2.762,4.783-1.123,10.899,3.66,13.66
	c1.575,0.91,3.294,1.342,4.99,1.342c3.456,0,6.818-1.794,8.67-5.002l14.404-24.949C439.583,10.232,437.945,4.116,433.162,1.355z"/>
<path d="M178.003,110.092l17.921,10.347c1.575,0.91,3.294,1.342,4.99,1.342c3.456,0,6.818-1.794,8.67-5.002
	c2.762-4.783,1.123-10.899-3.66-13.66l-17.921-10.347c-4.785-2.763-10.9-1.123-13.66,3.66
	C171.581,101.215,173.22,107.331,178.003,110.092z"/>
<path d="M327.287,320.645c-5.522,0-10,4.477-10,10v28.81c0,5.523,4.478,10,10,10s10-4.477,10-10v-28.81
	C337.287,325.122,332.809,320.645,327.287,320.645z"/>
<path d="M473.914,257.842l-15.265-8.812c-4.784-2.761-10.899-1.122-13.66,3.661c-2.762,4.783-1.123,10.899,3.66,13.661l15.265,8.813
	c1.575,0.909,3.294,1.341,4.99,1.341c3.456,0,6.818-1.794,8.67-5.002C480.335,266.719,478.697,260.603,473.914,257.842z"/>
<path d="M453.659,121.78c1.696,0,3.415-0.433,4.99-1.342l29.98-17.309c4.783-2.761,6.422-8.877,3.66-13.66
	c-2.759-4.782-8.875-6.421-13.66-3.66l-29.98,17.309c-4.783,2.761-6.422,8.877-3.66,13.66
	C446.84,119.987,450.202,121.78,453.659,121.78z"/>
<path d="M327.287,378.89c-5.522,0-10,4.477-10,10v0.452c0,5.523,4.478,10,10,10s10-4.477,10-10v-0.452
	C337.287,383.367,332.809,378.89,327.287,378.89z"/>
<path d="M398.921,69.999c5.522,0,10-4.477,10-10v-0.453c0-5.523-4.478-10-10-10s-10,4.477-10,10v0.453
	C388.921,65.522,393.399,69.999,398.921,69.999z"/>
<g>
</g>
<g>
</g>
<g>
</g>
<g>
</g>
<g>
</g>
<g>
</g>
<g>
</g>
<g>
</g>
<g>
</g>
<g>
</g>
<g>
</g>
<g>
</g>
<g>
</g>
<g>
</g>
<g>
</g>
</svg>
