<svg viewBox="0 0 512 512" class="h-6 w-6" xmlns="http://www.w3.org/2000/svg">
                        <path
                          d="M412.07 144.71l-44.285-44.284L388.5 79.71c3.945-3.945 10.34-3.945 14.285 0l30 30c3.945 3.945 3.945 10.344 0 14.289zm0 0"
                          fill="#828282" />
                        <path
                          d="M432.785 109.71L422.07 99c3.946 3.945 3.946 10.34 0 14.285L401.355 134l10.715 10.71L432.785 124c3.945-3.945 3.945-10.344 0-14.29zm0 0"
                          fill="#5a5a5a" />
                        <path d="M379.215 193.285L504.5 318.57l-6.375-41.28A123.147 123.147 0 0 0 463.5 209l-50-50zm0 0"
                          fill="#cdcdcd" />
                        <path
                          d="M501.11 296.61l-96.215-96.215c-3.946-3.946-3.946-10.344 0-14.286l17.855-17.859-9.25-9.25-34.285 34.285L504.5 318.57zm0 0"
                          fill="#bebebe" />
                        <path d="M319.215 133.285L193.93 8l41.277 6.371a123.134 123.134 0 0 1 68.29 34.625l50 50zm0 0"
                          fill="#cdcdcd" />
                        <path
                          d="M215.89 11.39l96.215 96.215c3.946 3.946 10.34 3.946 14.286 0l17.855-17.859L353.5 99l-34.285 34.285L193.93 8zm0 0"
                          fill="#bebebe" />
                        <path d="M317.785 164.71l30 30-173.574 173.571-30-30zm0 0" fill="#f2bb88" />
                        <path
                          d="M317.785 164.715L308.5 174l13.57 13.57c3.946 3.946 3.946 10.344 0 14.29L164.926 359l9.285 9.285 173.574-173.57zm0 0"
                          fill="#e3a76f" />
                        <path d="M347.785 194.715l26.43 2.14 45-45L359.93 92.57l-45 45 2.855 27.145zm0 0"
                          fill="#e6e6e6" />
                        <path
                          d="M407.07 139.71l-38.46 38.462a19.992 19.992 0 0 1-15.758 5.793l-17.211-1.395 12.144 12.14 26.43 2.145 45-45zm0 0"
                          fill="#cdcdcd" />
                        <path d="M137.785 331.855l42.86 42.856L50.359 504.996l-42.855-42.86zm0 0" fill="#828282" />
                        <path d="M39.64 494.281L169.923 364l10.715 10.71L50.355 504.997zm0 0" fill="#5a5a5a" />
                        <path
                          d="M511.91 317.426l-6.37-41.281c-4.267-27.63-16.97-52.68-36.735-72.45l-9.442-9.441a7.502 7.502 0 0 0-10.61 0c-2.925 2.93-2.925 7.68 0 10.605l9.446 9.442c17.496 17.5 28.742 39.676 32.516 64.133l2.875 18.617-104.485-104.48 23.68-23.68 10.828 10.828c3.051 3.05 8.2 2.843 11.004-.43 2.516-2.937 2.332-7.45-.398-10.176l-10.824-10.828 1.125-1.125a7.504 7.504 0 0 0 0-10.605l-1.84-1.84 15.41-15.41a17.499 17.499 0 0 0 5.156-12.45c0-4.699-1.832-9.12-5.156-12.445l-30-30c-6.863-6.863-18.031-6.86-24.895 0l-15.41 15.41-2.555-2.554c-2.925-2.926-7.675-2.926-10.605 0L353.5 88.39l-44.695-44.696c-19.77-19.77-44.82-32.468-72.45-36.734L195.075.59a7.497 7.497 0 0 0-7.837 4.02 7.504 7.504 0 0 0 1.387 8.695L308.711 133.39a7.515 7.515 0 0 0-1.242 4.968l2.484 23.582L144.211 327.68l-1.125-1.125a7.495 7.495 0 0 0-5.3-2.196c-1.993 0-3.9.79-5.306 2.196l-58.972 58.972a7.497 7.497 0 0 0 0 10.606 7.497 7.497 0 0 0 10.605 0l53.668-53.668 32.254 32.25L50.36 494.39l-32.254-32.25 41.297-41.293a7.497 7.497 0 0 0 0-10.606 7.502 7.502 0 0 0-10.609 0L2.195 456.836a7.51 7.51 0 0 0 0 10.61l42.86 42.855a7.501 7.501 0 0 0 5.304 2.199 7.499 7.499 0 0 0 5.301-2.2l130.285-130.28c2.926-2.93 2.926-7.68 0-10.606l-1.125-1.125 94.477-94.48a7.497 7.497 0 0 0 0-10.606 7.497 7.497 0 0 0-10.606 0l-94.48 94.477-19.39-19.39 162.964-162.97 19.395 19.395-43.66 43.66a7.497 7.497 0 0 0 0 10.605 7.497 7.497 0 0 0 10.605 0l46.512-46.511 22.968 1.863c.204.016.407.027.606.027 1.5 0 2.957-.453 4.187-1.28l120.797 120.796a7.491 7.491 0 0 0 5.305 2.195 7.5 7.5 0 0 0 7.41-8.645zM393.805 85.016a2.606 2.606 0 0 1 3.68 0l30 30c.663.664.761 1.437.761 1.84 0 .402-.098 1.18-.762 1.84l-15.414 15.41-33.675-33.68zm-159.739-63.23c24.457 3.773 46.633 15.019 64.13 32.515L342.894 99l-23.68 23.676L215.445 18.91zM351.141 187.46l-26.176-26.172-2.203-20.945 37.168-37.168 48.68 48.68-37.247 37.246zm0 0" />
                      </svg>
